<svg width="20" viewBox="0 0 512 448" fill="#152A42" xmlns="http://www.w3.org/2000/svg">
<g clip-path="url(#clip0_54_2)">
<path d="M278.6 9.39998C266.1 -3.10001 245.8 -3.10001 233.3 9.39999L73.3 169.4C60.8 181.9 60.8 202.2 73.3 214.7C85.8 227.2 106.1 227.2 118.6 214.7L256 77.3L393.4 214.6C405.9 227.1 426.2 227.1 438.7 214.6C451.2 202.1 451.2 181.8 438.7 169.3L278.7 9.29998L278.6 9.39998ZM438.6 361.4L278.6 201.4C266.1 188.9 245.8 188.9 233.3 201.4L73.3 361.4C60.8 373.9 60.8 394.2 73.3 406.7C85.8 419.2 106.1 419.2 118.6 406.7L256 269.3L393.4 406.6C405.9 419.1 426.2 419.1 438.7 406.6C451.2 394.1 451.2 373.8 438.7 361.3L438.6 361.4Z" fill="#152A42"/>
</g>
<defs>
<clipPath id="clip0_54_2">
<rect width="448" height="512" fill="white" transform="translate(0 448) rotate(-90)"/>
</clipPath>
</defs>
</svg>
