<svg width="170" height="40" viewBox="0 0 157 36" fill="none" xmlns="http://www.w3.org/2000/svg">
<path d="M9.396 30H14.292V26.868H10.584C9.9 26.868 9.576 26.508 9.576 25.788V15.384H14.868V12.252H9.576V6.384H5.868V12.252H0.972V15.384H5.868V26.436C5.868 28.632 7.2 30 9.396 30ZM26.9075 30.504C32.2355 30.504 36.1235 27.048 36.1235 21.396V20.856C36.1235 15.24 32.2355 11.748 26.9075 11.748C21.5795 11.748 17.7275 15.24 17.7275 20.856V21.396C17.7275 27.048 21.5795 30.504 26.9075 30.504ZM26.9075 27.192C23.6675 27.192 21.4355 24.996 21.4355 21.288V20.964C21.4355 17.292 23.6675 15.06 26.9075 15.06C30.1835 15.06 32.4155 17.292 32.4155 20.964V21.288C32.4155 24.996 30.1475 27.192 26.9075 27.192ZM49.0559 30.504C54.3839 30.504 58.2719 27.048 58.2719 21.396V20.856C58.2719 15.24 54.3839 11.748 49.0559 11.748C43.7279 11.748 39.8759 15.24 39.8759 20.856V21.396C39.8759 27.048 43.7279 30.504 49.0559 30.504ZM49.0559 27.192C45.8159 27.192 43.5839 24.996 43.5839 21.288V20.964C43.5839 17.292 45.8159 15.06 49.0559 15.06C52.3319 15.06 54.5639 17.292 54.5639 20.964V21.288C54.5639 24.996 52.2959 27.192 49.0559 27.192ZM70.2323 30.504C73.6883 30.504 75.3803 29.028 76.2803 27.48H76.8563V30H80.4923V4.8H76.7843V14.664H76.2083C75.3803 13.224 73.6883 11.748 70.2323 11.748C65.7683 11.748 62.0243 15.132 62.0243 20.856V21.396C62.0243 27.156 65.8043 30.504 70.2323 30.504ZM71.2763 27.264C68.1083 27.264 65.7683 25.104 65.7683 21.288V20.964C65.7683 17.148 68.0723 15.024 71.2763 15.024C74.5163 15.024 76.8203 17.148 76.8203 20.964V21.288C76.8203 25.104 74.4803 27.264 71.2763 27.264ZM94.0868 30.504C98.8748 30.504 100.963 27.804 102.043 25.752L98.9468 24.168C98.1908 25.824 96.9668 27.264 94.1588 27.264C91.1708 27.264 88.9748 25.284 88.8668 22.152H102.511V20.748C102.511 15.348 99.0548 11.748 93.9428 11.748C88.7228 11.748 85.0868 15.384 85.0868 20.928V21.36C85.0868 26.868 88.6868 30.504 94.0868 30.504ZM88.9028 19.308C89.2628 16.644 91.0988 15.024 93.9068 15.024C96.6788 15.024 98.5508 16.644 98.7668 19.308H88.9028ZM106.974 30H110.682V19.56C110.682 16.824 112.374 15.528 114.786 15.528H117.054V12.18H114.93C113.022 12.18 111.762 12.864 111.186 14.34H110.61V12.252H106.974V30Z" fill="white"/>
<path d="M144 7L131 20" stroke="white" stroke-width="3" stroke-linecap="round"/>
<path d="M155 18L142 31" stroke="white" stroke-width="3" stroke-linecap="round"/>
<path d="M152 10L134 28" stroke="white" stroke-width="3" stroke-linecap="round"/>
</svg>
